<svg xmlns="http://www.w3.org/2000/svg" width="40" height="40" viewBox="0 0 40 40" fill="none">
<defs><linearGradient id="a" x1="8" y1="7" x2="31" y2="33"><stop stop-color="#4DA3FF"/><stop offset="1" stop-color="#2DD4BF"/></linearGradient></defs>
<rect x="1" y="1" width="38" height="38" rx="9" fill="#1F2430" stroke="#5C667A" stroke-width="2"/>
<ellipse cx="17" cy="11" rx="10" ry="4.5" fill="#2A3140" stroke="#E6EDF7" stroke-width="2"/>
<path d="M7 11v12c0 2.5 4.5 5 10 5s10-2.5 10-5V11" fill="#252C3A" stroke="#E6EDF7" stroke-width="2"/>
<path d="M7 17c0 2.5 4.5 5 10 5s10-2.5 10-5M7 23c0 2.5 4.5 5 10 5s10-2.5 10-5" stroke="#E6EDF7" stroke-width="2"/>
<path d="M20.5 15.5l7-4 7 4v8l-7 4-7-4v-8Z" fill="url(#a)" stroke="#1F2430" stroke-width="1.8" stroke-linejoin="round"/>
<path d="M25.3 17.1h2.8c2.1 0 3.4 1.1 3.4 2.9 0 1.9-1.4 3-3.5 3h-.8v2h-1.9v-7.9Zm1.9 1.7v2.5h.7c1.1 0 1.7-.4 1.7-1.2 0-.9-.6-1.3-1.7-1.3h-.7Z" fill="#FFF"/>
<rect x="23.5" y="25" width="11.5" height="8.5" rx="2" fill="#2A3140" stroke="#E6EDF7" stroke-width="1.5"/>
<path d="M27 27.3c-.7 0-1 .4-1 1.1v1.5c0 .7-.3 1.1-1 1.1m6.5-3.7c.7 0 1 .4 1 1.1v1.5c0 .7.3 1.1 1 1.1" stroke="#2DD4BF" stroke-width="1.5" stroke-linecap="round"/>
<path d="M10.5 14.8h1.7m2 0h1.7m-5.4 4h1.7m2 0h1.7" stroke="#2DD4BF" stroke-width="1.5" stroke-linecap="round"/>
</svg>